HIERARCHY
ROOT Hips
{
  OFFSET 5.84602e-005 68.8428 3.50346
  CHANNELS 6 Xposition Yposition Zposition Zrotation Xrotation Yrotation
  JOINT Spine
  {
    OFFSET 0 8.597 -4.6522
    CHANNELS 3 Zrotation Xrotation Yrotation
    JOINT Spine1
    {
      OFFSET 0 7.8454 0.4098
      CHANNELS 3 Zrotation Xrotation Yrotation
      JOINT Spine2
      {
        OFFSET 0 9.7078 -2.1609
        CHANNELS 3 Zrotation Xrotation Yrotation
        JOINT Neck
        {
          OFFSET 0 21.8761 -0.4549
          CHANNELS 3 Zrotation Xrotation Yrotation
          JOINT Head
          {
            OFFSET 0 12.3537 3.3602
            CHANNELS 3 Zrotation Xrotation Yrotation
            End Site
            {
              OFFSET 0.0001 18.9506 0.5657
            }
          }
        }
        JOINT LeftShoulder
        {
          OFFSET 2.2086 21.1115 7.2329
          CHANNELS 3 Zrotation Xrotation Yrotation
          JOINT LeftArm
          {
            OFFSET 13.1193 3.0282 -4.8998
            CHANNELS 3 Zrotation Xrotation Yrotation
            JOINT LeftForeArm
            {
              OFFSET 27.4081 -0.0973053 -0.2375
              CHANNELS 3 Zrotation Xrotation Yrotation
              JOINT LeftHand
              {
                OFFSET 22.8641 0.0662994 -0.1369
                CHANNELS 3 Zrotation Xrotation Yrotation
                JOINT LeftHandIndex1
                {
                  OFFSET 8.8614 0.775009 2.4612
                  CHANNELS 3 Zrotation Xrotation Yrotation
                  JOINT LeftHandIndex2
                  {
                    OFFSET 3.3146 -0.808304 0.5841
                    CHANNELS 3 Zrotation Xrotation Yrotation
                    JOINT LeftHandIndex3
                    {
                      OFFSET 2.2628 -0.552002 0.3989
                      CHANNELS 3 Zrotation Xrotation Yrotation
                      End Site
                      {
                        OFFSET 1.6102 -0.4807 0.2612
                      }
                    }
                  }
                }
                JOINT LeftHandMiddle1
                {
                  OFFSET 8.9937 0.895004 0.2143
                  CHANNELS 3 Zrotation Xrotation Yrotation
                  JOINT LeftHandMiddle2
                  {
                    OFFSET 4.0984 0.0113983 -0.0242
                    CHANNELS 3 Zrotation Xrotation Yrotation
                    JOINT LeftHandMiddle3
                    {
                      OFFSET 2.2716 0.00689697 -0.0138001
                      CHANNELS 3 Zrotation Xrotation Yrotation
                      End Site
                      {
                        OFFSET 2.0404 -0.1441 0.0027
                      }
                    }
                  }
                }
                JOINT LeftHandRing1
                {
                  OFFSET 8.5234 0.597198 -2.0164
                  CHANNELS 3 Zrotation Xrotation Yrotation
                  JOINT LeftHandRing2
                  {
                    OFFSET 3.7188 -0.188293 -0.2328
                    CHANNELS 3 Zrotation Xrotation Yrotation
                    JOINT LeftHandRing3
                    {
                      OFFSET 2.1191 -0.106598 -0.1332
                      CHANNELS 3 Zrotation Xrotation Yrotation
                      End Site
                      {
                        OFFSET 1.8737 -0.2304 -0.0886
                      }
                    }
                  }
                }
                JOINT LeftHandPinky1
                {
                  OFFSET 7.9094 -0.601089 -3.4825
                  CHANNELS 3 Zrotation Xrotation Yrotation
                  JOINT LeftHandPinky2
                  {
                    OFFSET 2.2874 -0.477005 -0.6314
                    CHANNELS 3 Zrotation Xrotation Yrotation
                    JOINT LeftHandPinky3
                    {
                      OFFSET 1.6774 -0.349396 -0.4633
                      CHANNELS 3 Zrotation Xrotation Yrotation
                      End Site
                      {
                        OFFSET 1.4888 -0.4091 -0.3416
                      }
                    }
                  }
                }
                JOINT LeftHandThumb1
                {
                  OFFSET 1.833 -1.3875 1.3896
                  CHANNELS 3 Zrotation Xrotation Yrotation
                  JOINT LeftHandThumb2
                  {
                    OFFSET 3.4129 -1.121 2.5732
                    CHANNELS 3 Zrotation Xrotation Yrotation
                    JOINT LeftHandThumb3
                    {
                      OFFSET 2.2474 -0.804199 1.6192
                      CHANNELS 3 Zrotation Xrotation Yrotation
                      End Site
                      {
                        OFFSET 1.6527 -0.5689 1.1317
                      }
                    }
                  }
                }
              }
            }
          }
        }
        JOINT RightShoulder
        {
          OFFSET -2.2086 21.1115 7.2329
          CHANNELS 3 Zrotation Xrotation Yrotation
          JOINT RightArm
          {
            OFFSET -13.1216 3.0287 -4.9007
            CHANNELS 3 Zrotation Xrotation Yrotation
            JOINT RightForeArm
            {
              OFFSET -27.4081 -0.0973053 -0.2375
              CHANNELS 3 Zrotation Xrotation Yrotation
              JOINT RightHand
              {
                OFFSET -22.8641 0.0664063 -0.1369
                CHANNELS 3 Zrotation Xrotation Yrotation
                JOINT RightHandIndex1
                {
                  OFFSET -8.8614 0.774994 2.4612
                  CHANNELS 3 Zrotation Xrotation Yrotation
                  JOINT RightHandIndex2
                  {
                    OFFSET -3.3146 -0.808304 0.5841
                    CHANNELS 3 Zrotation Xrotation Yrotation
                    JOINT RightHandIndex3
                    {
                      OFFSET -2.2628 -0.552002 0.3989
                      CHANNELS 3 Zrotation Xrotation Yrotation
                      End Site
                      {
                        OFFSET -1.6102 -0.4807 0.2612
                      }
                    }
                  }
                }
                JOINT RightHandMiddle1
                {
                  OFFSET -8.9937 0.894989 0.2143
                  CHANNELS 3 Zrotation Xrotation Yrotation
                  JOINT RightHandMiddle2
                  {
                    OFFSET -4.0984 0.0113983 -0.0242
                    CHANNELS 3 Zrotation Xrotation Yrotation
                    JOINT RightHandMiddle3
                    {
                      OFFSET -2.2716 0.00691223 -0.0138001
                      CHANNELS 3 Zrotation Xrotation Yrotation
                      End Site
                      {
                        OFFSET -2.0404 -0.1441 0.0027
                      }
                    }
                  }
                }
                JOINT RightHandRing1
                {
                  OFFSET -8.5234 0.597198 -2.0164
                  CHANNELS 3 Zrotation Xrotation Yrotation
                  JOINT RightHandRing2
                  {
                    OFFSET -3.7188 -0.188309 -0.2328
                    CHANNELS 3 Zrotation Xrotation Yrotation
                    JOINT RightHandRing3
                    {
                      OFFSET -2.1191 -0.106598 -0.1332
                      CHANNELS 3 Zrotation Xrotation Yrotation
                      End Site
                      {
                        OFFSET -1.8737 -0.2304 -0.0886
                      }
                    }
                  }
                }
                JOINT RightHandPinky1
                {
                  OFFSET -7.9094 -0.601105 -3.4825
                  CHANNELS 3 Zrotation Xrotation Yrotation
                  JOINT RightHandPinky2
                  {
                    OFFSET -2.2874 -0.477005 -0.6314
                    CHANNELS 3 Zrotation Xrotation Yrotation
                    JOINT RightHandPinky3
                    {
                      OFFSET -1.6774 -0.349396 -0.4633
                      CHANNELS 3 Zrotation Xrotation Yrotation
                      End Site
                      {
                        OFFSET -1.4888 -0.4091 -0.3416
                      }
                    }
                  }
                }
                JOINT RightHandThumb1
                {
                  OFFSET -1.833 -1.38751 1.3896
                  CHANNELS 3 Zrotation Xrotation Yrotation
                  JOINT RightHandThumb2
                  {
                    OFFSET -3.41299 -1.12099 2.5732
                    CHANNELS 3 Zrotation Xrotation Yrotation
                    JOINT RightHandThumb3
                    {
                      OFFSET -2.24741 -0.804108 1.6192
                      CHANNELS 3 Zrotation Xrotation Yrotation
                      End Site
                      {
                        OFFSET -1.6527 -0.5689 1.1317
                      }
                    }
                  }
                }
              }
            }
          }
        }
      }
    }
  }
  JOINT RightUpLeg
  {
    OFFSET -9.1966 3.8861 -0.7581
    CHANNELS 3 Zrotation Xrotation Yrotation
    JOINT RightLeg
    {
      OFFSET -0.7359 -41.0265 0
      CHANNELS 3 Zrotation Xrotation Yrotation
      JOINT RightFoot
      {
        OFFSET 0 -40.2855 0
        CHANNELS 3 Zrotation Xrotation Yrotation
        JOINT RightToeBase
        {
          OFFSET 0 -5.6122 11.7359
          CHANNELS 3 Zrotation Xrotation Yrotation
          End Site
          {
            OFFSET 0 0 7.8731
          }
        }
      }
    }
  }
  JOINT LeftUpLeg
  {
    OFFSET 9.1965 3.8864 -0.7581
    CHANNELS 3 Zrotation Xrotation Yrotation
    JOINT LeftLeg
    {
      OFFSET 0.7359 -41.0268 0
      CHANNELS 3 Zrotation Xrotation Yrotation
      JOINT LeftFoot
      {
        OFFSET 0 -40.2855 0
        CHANNELS 3 Zrotation Xrotation Yrotation
        JOINT LeftToeBase
        {
          OFFSET 0 -5.6122 11.7359
          CHANNELS 3 Zrotation Xrotation Yrotation
          End Site
          {
            OFFSET 0 0 7.8731
          }
        }
      }
    }
  }
}
MOTION
Frames:	4
Frame Time:	0.0333333
5.84602e-005 68.8428 3.50346 0 0 -0 0 0 -0 0 0 -0 0 0 -0 0 0 -0 0 0 -0 0 0 -0 0 0 -0 0 0 -0 0 0 -0 0 0 -0 0 0 -0 0 0 -0 0 0 -0 -0.0146107 -8.87603e-005 -2.63497e-007 2.99804e-018 -2.42657e-020 -1.42182e-022 0 0 -0 -0.0187562 -0.001176 5.858e-005 5.06224e-018 3.88251e-019 1.21329e-020 0 0 -0 -0.012269 -0.00324817 0.000675346 -1.74678e-018 3.88251e-019 -0 0 0 -0 0 0 -0 0 0 -0 0 0 -0 0 0 -0 0 0 -0 0 0 -0 0 0 -0 0 0 -0 0 0 -0 0 0 -0 0.0149955 -9.10982e-005 2.64101e-007 -9.69331e-018 1.21329e-020 -4.7394e-023 0 0 -0 0.0189956 -0.00119102 -5.96516e-005 -5.41541e-019 0 2.42657e-020 0 0 -0 0.0122698 -0.00324857 -0.000673756 -2.00796e-019 0 -1.94126e-019 0 0 -0 0 0 -0 0 0 -0 3.39842 1.33031 -0.0637918 -5.65207e-008 0.834868 -0.000436188 -3.39935 -2.16518 -0.0642563 -8.89002e-024 -1.18485e-023 -1.48106e-024 -3.39844 1.35642 0.0640283 -3.18788e-007 0.782166 -0.000588827 3.39931 -2.13858 0.0634662 1.1399e-023 0 -0 
-8.93425 46.8808 3.20198 0 0 -0 0.00845209 8.55892 -0.0183779 0.0200594 17.1178 -0.0387096 0.0200593 17.1178 -0.0387096 2.70618 3.48061 0.17606 -0.0204771 -11.0987 -0.0125059 18.2027 -38.9377 4.10292 -7.01751 2.39947 -14.2312 -2.24749 0.459523 -5.89597 13.3853 -6.27487 0.506571 1.63741e-007 -1.92736e-008 -9.21227e-008 3.97569e-016 1.59028e-015 -6.36111e-015 -1.63741e-007 1.92736e-008 9.21227e-008 1.63741e-007 -1.92736e-008 -9.21227e-008 -0.0145148 -8.77454e-005 1.69487e-007 -2.78299e-015 -3.97569e-015 -0 1.63741e-007 -1.92736e-008 -9.21227e-008 -0.0188141 -0.00118008 5.91006e-005 -1.19271e-015 2.38542e-015 -6.36111e-015 1.63741e-007 -1.92736e-008 -9.21227e-008 -0.0124294 -0.00329015 0.000681652 -3.97569e-016 2.38542e-015 9.54166e-015 1.63741e-007 -1.92736e-008 -9.21227e-008 3.97569e-016 1.59028e-015 -6.36111e-015 -1.63741e-007 1.92736e-008 9.21227e-008 -8.53672 -20.3123 -2.61742 8.904 3.83973 15.3573 4.7608 0.705687 5.76143 -14.2905 -2.53104 -12.6616 4.17493e-007 -3.88802e-008 7.7712e-008 4.17493e-007 -3.88802e-008 7.7712e-008 4.17493e-007 -3.88802e-008 7.7712e-008 4.17493e-007 -3.88802e-008 7.7712e-008 0.0150338 -9.05868e-005 6.3554e-007 4.17496e-007 -3.88701e-008 7.77168e-008 4.17493e-007 -3.88802e-008 7.7712e-008 0.0190422 -0.00119104 -5.79101e-005 4.17497e-007 -3.88673e-008 7.77141e-008 4.17493e-007 -3.88802e-008 7.7712e-008 0.012336 -0.00326522 -0.000677764 4.17498e-007 -3.887e-008 7.77042e-008 4.17493e-007 -3.88802e-008 7.7712e-008 4.17493e-007 -3.88802e-008 7.7712e-008 4.17493e-007 -3.88802e-008 7.7712e-008 1.437 -18.4247 -2.4947 0.695656 58.0338 -0.990861 -6.42223 16.3674 -0.355296 -7.6494e-008 -3.84147e-007 -3.35482e-007 -1.45883 -18.1448 2.46989 -0.689266 57.7357 0.999043 6.41435 16.17 0.370471 -4.99533e-008 2.897e-009 9.42632e-008 
-17.8682 24.8443 2.88865 0 0 -0 0.0193433 17.1178 -0.0438376 0.0573116 34.2357 -0.101401 0.0573117 34.2357 -0.101401 5.39086 6.96142 0.354065 -0.0461517 -22.1973 -0.0265061 58.8838 -76.448 28.3112 -12.8897 4.35211 -28.5267 -4.40105 0.904439 -11.7931 26.8839 -12.5483 1.03169 0 0 -6.36111e-015 -3.18055e-015 1.59028e-015 -6.36111e-015 8.39887e-007 -4.41658e-007 -1.04125e-009 0 0 -6.36111e-015 -0.014625 -8.66322e-005 2.8582e-006 8.399e-007 -4.41658e-007 -1.09825e-009 0 0 -6.36111e-015 -0.0187497 -0.00117696 5.22231e-005 4.70966e-007 -5.63938e-007 -2.40873e-006 0 0 -6.36111e-015 -0.0122994 -0.0032563 0.000668494 8.39895e-007 -4.4166e-007 -1.1131e-009 0 0 -6.36111e-015 -3.18055e-015 1.59028e-015 -6.36111e-015 8.39887e-007 -4.41658e-007 -1.04125e-009 -19.4595 -40.4833 -6.46006 15.8372 6.84514 30.888 9.3806 1.38995 11.5254 -29.6662 -4.68937 -25.3891 5.93741e-007 -1.48151e-007 1.88446e-007 1.00473e-007 -3.38884e-006 2.51492e-007 9.89568e-008 -2.46918e-008 3.14077e-008 5.93741e-007 -1.48151e-007 1.88446e-007 0.0150241 -9.14927e-005 -7.89855e-008 2.90007e-007 8.35362e-007 2.54643e-008 5.93741e-007 -1.48151e-007 1.88446e-007 0.018967 -0.00119085 -6.17681e-005 9.89572e-008 -2.46866e-008 3.14108e-008 5.93741e-007 -1.48151e-007 1.88446e-007 0.0123022 -0.00325345 -0.000674795 9.89579e-008 -2.46879e-008 3.14076e-008 5.93741e-007 -1.48151e-007 1.88446e-007 1.00473e-007 -3.38884e-006 2.51492e-007 9.89568e-008 -2.46918e-008 3.14077e-008 -1.42313 -36.9709 -6.58708 -172.669 67.07 172.324 -7.15913 36.502 -4.05759 -1.33479e-007 3.76781e-006 1.52935e-006 1.3551 -36.9495 6.51667 172.783 67.1237 -172.395 7.16739 36.0956 4.06527 -1.59028e-015 6.36111e-015 -1.98785e-015 
-24.1214 9.42145 2.64055 0 0 -0 0.0299065 23.1091 -0.0678705 0.10816 46.2181 -0.175055 0.10816 46.2181 -0.175055 7.25349 9.24193 0.501004 -4.20708e-007 -30.0023 1.45594e-006 -166.532 -72.4606 150.143 -16.4021 5.21337 -38.5609 -5.85417 1.19948 -15.9222 36.4048 -16.9379 1.4212 -4.61985e-006 -1.33383e-007 1.37335e-006 -4.55316e-006 -2.44331e-006 1.51375e-006 2.75869e-033 -1.98785e-016 7.95139e-016 -4.61985e-006 -1.33383e-007 1.37335e-006 -0.0146252 -9.12657e-005 8.19378e-007 -7.95139e-016 2.38542e-014 -0 -4.61985e-006 -1.33383e-007 1.37335e-006 -0.0187536 -0.00117871 6.20253e-005 6.95099e-007 -6.84764e-007 1.33901e-007 -4.61985e-006 -1.33383e-007 1.37335e-006 -0.0122605 -0.00324664 0.000680948 -3.47595e-031 2.50469e-014 7.95139e-016 -4.61985e-006 -1.33383e-007 1.37335e-006 -4.55316e-006 -2.44331e-006 1.51375e-006 2.75869e-033 -1.98785e-016 7.95139e-016 -29.8445 -54.3501 -11.3215 19.7245 8.03844 41.8408 12.5201 1.8413 15.5419 -40.9951 -5.79151 -34.3521 -0 0 3.18055e-015 -3.18055e-015 0 6.36111e-015 -0 -6.36111e-015 -0 -0 0 3.18055e-015 0.0150175 -9.59338e-005 -1.71134e-006 -6.36111e-015 3.18055e-015 -0 -0 0 3.18055e-015 0.0189895 -0.00119015 -6.10699e-005 9.54166e-015 0 1.27222e-014 -0 0 3.18055e-015 0.0123225 -0.00325761 -0.00067409 1.27222e-014 0 -3.18055e-015 -0 0 3.18055e-015 -3.18055e-015 0 6.36111e-015 -0 -6.36111e-015 -0 -4.33599 -49.961 -14.2275 -174.689 28.9098 170.063 -3.85307 50.9961 -10.0791 -2.06018e-007 -1.88068e-008 5.2474e-008 4.20057 -49.9217 14.1185 174.773 28.9612 -170.104 3.94465 50.4129 10.0218 -2.38542e-015 0 -0 
